# xmcd
#
# Track frame offsets: 
#        183
#        12783
#        28958
#        39708
#        49858
#        64070
#        76508
#        90633
#        102595
#        115233
#        128758
#        142508
#        156345
#        169008
#        184483
#        194245
#        203483
#        215845
#        230795
#        245845
#        260633
#        273395
#
# Disc length: 3857 seconds
#
# Revision: 2
# Processed by: cddbd v1.5.1PL2 Copyright (c) Steve Scherf et al.
# Submitted via: ExactAudioCopy v0.95b2
#
DISCID=480f0f16
DTITLE=Various Artist - First Ladies Of Country - Melba Montgomery and Norma Je
DTITLE=an
DYEAR=1999
DGENRE=Country
TTITLE0=Norma Jean - Let´s Go All The Way
TTITLE1=Norma Jean - Old Flames Can't Hold A Candle To You
TTITLE2=Norma Jean - We've Got A Good Thing Going
TTITLE3=Norma Jean - Company's Coming
TTITLE4=Norma Jean - You Needed Me
TTITLE5=Norma Jean - Bring Yourself Home
TTITLE6=Melba Montgomery - Don't Let The Good Times Fool You
TTITLE7=Melba Montgomery - We Must Have Been Out Of Our Minds
TTITLE8=Melba Montgomery - Another Bridge To Burn
TTITLE9=Melba Montgomery - Think I'll Go Somewhere (And Cry Myself To 
TTITLE9=Sleep)
TTITLE10=Melba Montgomery - Today You Stopped Loving Me
TTITLE11=Norma Jean - My Heart Is Like Gilbraltar
TTITLE12=Norma Jean - Cold, Cold Heart
TTITLE13=Norma Jean - I'm Not Ready Yet
TTITLE14=Norma Jean - Go Cat Go
TTITLE15=Norma Jean - I Wouldn't Buy A Used Car From Him
TTITLE16=Norma Jean - God May Forgive You But I Won't
TTITLE17=Melba Montgomery - No Change
TTITLE18=Melba Montgomery - After Losing You
TTITLE19=Melba Montgomery - Key's In The Mailbox
TTITLE20=Melba Montgomery - Don't Keep Me Lonely Too Long
TTITLE21=Melba Montgomery - I'm Still In Love With You
EXTD=YEAR: 1993
EXTT0=
EXTT1=
EXTT2=
EXTT3=
EXTT4=
EXTT5=
EXTT6=
EXTT7=
EXTT8=
EXTT9=
EXTT10=
EXTT11=
EXTT12=
EXTT13=
EXTT14=
EXTT15=
EXTT16=
EXTT17=
EXTT18=
EXTT19=
EXTT20=
EXTT21=
PLAYORDER=
